<svg width="29" height="28" viewBox="0 0 29 28" fill="none" xmlns="http://www.w3.org/2000/svg">
<path d="M14.2188 4.21831C12.2718 4.21831 10.3687 4.77495 8.74986 5.81786C7.13107 6.86076 5.86937 8.34309 5.12432 10.0774C4.37927 11.8117 4.18433 13.72 4.56415 15.5611C4.94397 17.4022 5.8815 19.0934 7.25817 20.4208C8.63485 21.7481 10.3888 22.6521 12.2983 23.0183C14.2078 23.3845 16.1871 23.1966 17.9858 22.4782C19.7845 21.7598 21.3219 20.5433 22.4035 18.9825C23.4852 17.4217 24.0625 15.5867 24.0625 13.7095C24.0596 11.1931 23.0216 8.78063 21.1761 7.00129C19.3307 5.22196 16.8286 4.2211 14.2188 4.21831ZM14.2188 17.9278C14.8986 17.9301 15.5694 17.7786 16.1775 17.4856C16.7856 17.1925 17.314 16.7661 17.7201 16.2405C17.8054 16.1273 17.9132 16.0317 18.0373 15.9591C18.1613 15.8865 18.2991 15.8384 18.4425 15.8177C18.586 15.7969 18.7323 15.8039 18.873 15.8382C19.0137 15.8725 19.1458 15.9334 19.2618 16.0175C19.3778 16.1015 19.4753 16.2069 19.5486 16.3277C19.622 16.4484 19.6696 16.5819 19.6889 16.7206C19.7081 16.8592 19.6986 17.0002 19.6608 17.1353C19.623 17.2703 19.5577 17.3968 19.4688 17.5073C18.642 18.5692 17.4898 19.3535 16.1752 19.749C14.8606 20.1446 13.4502 20.1313 12.1438 19.7112C10.8375 19.2911 9.70126 18.4853 8.89614 17.4081C8.09103 16.3308 7.65779 15.0366 7.65779 13.7088C7.65779 12.381 8.09103 11.0869 8.89614 10.0096C9.70126 8.93235 10.8375 8.12661 12.1438 7.70647C13.4502 7.28633 14.8606 7.2731 16.1752 7.66864C17.4898 8.06418 18.642 8.84844 19.4688 9.91038C19.5577 10.0209 19.623 10.1473 19.6608 10.2824C19.6986 10.4175 19.7081 10.5584 19.6889 10.6971C19.6696 10.8357 19.622 10.9693 19.5486 11.09C19.4753 11.2107 19.3778 11.3162 19.2618 11.4002C19.1458 11.4842 19.0137 11.5452 18.873 11.5795C18.7323 11.6138 18.586 11.6208 18.4425 11.6C18.2991 11.5792 18.1613 11.5312 18.0373 11.4586C17.9132 11.386 17.8054 11.2903 17.7201 11.1772C17.2725 10.6023 16.68 10.1472 15.9987 9.85508C15.3175 9.56299 14.5701 9.44362 13.8276 9.50829C13.085 9.57296 12.3719 9.81953 11.756 10.2246C11.14 10.6297 10.6417 11.1798 10.3082 11.8227C9.9747 12.4657 9.81717 13.1801 9.85053 13.8983C9.8839 14.6164 10.1071 15.3144 10.4988 15.9261C10.8906 16.5377 11.438 17.0426 12.089 17.393C12.7401 17.7433 13.4732 17.9274 14.2188 17.9278ZM14.2188 0C11.4066 0 8.6575 0.804048 6.31924 2.31047C3.98098 3.81689 2.15853 5.95801 1.08234 8.4631C0.00616074 10.9682 -0.275418 13.7247 0.273216 16.3841C0.821849 19.0435 2.17605 21.4863 4.16458 23.4036C6.15311 25.3209 8.68665 26.6266 11.4448 27.1556C14.203 27.6845 17.0619 27.4131 19.66 26.3754C22.2582 25.3378 24.4788 23.5806 26.0412 21.3261C27.6036 19.0716 28.4375 16.421 28.4375 13.7095C28.4335 10.0747 26.9342 6.58985 24.2685 4.01966C21.6029 1.44946 17.9886 0.00383842 14.2188 0ZM14.2188 25.3098C11.8392 25.3098 9.51308 24.6295 7.53455 23.3548C5.55602 22.0802 4.01395 20.2684 3.10333 18.1488C2.19271 16.0291 1.95445 13.6966 2.41868 11.4464C2.88291 9.19614 4.02878 7.12915 5.71138 5.50681C7.39398 3.88448 9.53774 2.77965 11.8716 2.33205C14.2054 1.88445 16.6245 2.11417 18.8229 2.99218C21.0213 3.87018 22.9004 5.35702 24.2224 7.26469C25.5444 9.17236 26.25 11.4152 26.25 13.7095C26.2464 16.785 24.9777 19.7336 22.7221 21.9083C20.4666 24.0831 17.4085 25.3063 14.2188 25.3098Z" fill="white"/>
</svg>
