<svg width="24" height="24" viewBox="0 0 24 24" fill="none" xmlns="http://www.w3.org/2000/svg">
<rect width="24" height="23.1948" transform="translate(0 0.234375)" fill="white"/>
<path fill-rule="evenodd" clip-rule="evenodd" d="M12 2.16797C9.284 2.16797 8.944 2.17957 7.877 2.22596C6.813 2.27331 6.086 2.43664 5.45 2.67536C4.78249 2.91779 4.17775 3.29807 3.678 3.78967C3.16936 4.27268 2.77587 4.85712 2.525 5.50223C2.278 6.11689 2.109 6.8195 2.06 7.84781C2.011 8.87901 2 9.2076 2 11.8325C2 14.4574 2.011 14.786 2.06 15.8172C2.109 16.8455 2.278 17.5481 2.525 18.1627C2.7759 18.8078 3.16938 19.3923 3.678 19.8753C4.17779 20.3669 4.78252 20.7471 5.45 20.9896C6.086 21.2283 6.813 21.3917 7.877 21.439C8.944 21.4854 9.284 21.497 12 21.497C14.716 21.497 15.056 21.4854 16.123 21.439C17.187 21.3917 17.914 21.2283 18.55 20.9896C19.2175 20.7472 19.8222 20.3669 20.322 19.8753C20.8306 19.3923 21.2241 18.8078 21.475 18.1627C21.722 17.5481 21.891 16.8455 21.94 15.8172C21.988 14.786 22 14.4574 22 11.8325C22 9.2076 21.988 8.87901 21.94 7.84781C21.891 6.8195 21.722 6.11689 21.475 5.50223C21.2241 4.85712 20.8306 4.27268 20.322 3.78967C19.8222 3.29807 19.2175 2.91779 18.55 2.67536C17.914 2.43664 17.187 2.27331 16.123 2.22596C15.056 2.17957 14.716 2.16797 12 2.16797ZM12 3.90951C14.67 3.90951 14.986 3.91918 16.04 3.96557C17.016 4.00906 17.545 4.16562 17.898 4.29803C18.364 4.47392 18.698 4.68364 19.048 5.02093C19.398 5.35919 19.614 5.68199 19.796 6.13235C19.932 6.47351 20.096 6.98476 20.14 7.92705C20.188 8.94666 20.198 9.25109 20.198 11.8325C20.198 14.4129 20.188 14.7183 20.14 15.737C20.095 16.6802 19.932 17.1915 19.796 17.5326C19.6357 17.9524 19.3801 18.3322 19.048 18.644C18.698 18.9823 18.364 19.191 17.898 19.3669C17.545 19.4984 17.016 19.6569 16.041 19.6994C14.987 19.7458 14.671 19.7555 12 19.7555C9.33 19.7555 9.013 19.7458 7.96 19.6994C6.984 19.6559 6.455 19.4984 6.102 19.3669C5.66758 19.2121 5.27462 18.965 4.952 18.644C4.61986 18.3322 4.36426 17.9525 4.204 17.5326C4.067 17.1915 3.904 16.6802 3.86 15.7379C3.812 14.7183 3.802 14.4139 3.802 11.8325C3.802 9.25206 3.812 8.94666 3.86 7.92802C3.905 6.98476 4.067 6.47351 4.204 6.13235C4.386 5.68199 4.603 5.35919 4.952 5.02093C5.302 4.68268 5.636 4.47392 6.102 4.29803C6.455 4.16562 6.984 4.00809 7.959 3.96557C9.014 3.91918 9.329 3.90951 12 3.90951ZM12 15.0537C11.116 15.0537 10.2683 14.7143 9.64321 14.1102C9.01815 13.5061 8.667 12.6868 8.667 11.8325C8.667 10.9782 9.01815 10.1589 9.64321 9.55476C10.2683 8.95068 11.116 8.6113 12 8.6113C12.884 8.6113 13.7317 8.95068 14.3568 9.55476C14.9818 10.1589 15.333 10.9782 15.333 11.8325C15.333 12.6868 14.9818 13.5061 14.3568 14.1102C13.7317 14.7143 12.884 15.0537 12 15.0537ZM12 6.86976C11.3257 6.86976 10.6579 6.99812 10.0349 7.24752C9.41191 7.49692 8.84584 7.86247 8.36901 8.32331C7.89218 8.78414 7.51394 9.33122 7.25588 9.93333C6.99782 10.5354 6.865 11.1808 6.865 11.8325C6.865 12.4842 6.99782 13.1295 7.25588 13.7316C7.51394 14.3337 7.89218 14.8808 8.36901 15.3417C8.84584 15.8025 9.41191 16.168 10.0349 16.4174C10.6579 16.6669 11.3257 16.7952 12 16.7952C13.3619 16.7952 14.668 16.2724 15.631 15.3417C16.594 14.411 17.135 13.1487 17.135 11.8325C17.135 10.5163 16.594 9.254 15.631 8.32331C14.668 7.39261 13.3619 6.86976 12 6.86976ZM18.538 6.67357C18.538 6.82587 18.507 6.97667 18.4467 7.11738C18.3863 7.25809 18.298 7.38594 18.1865 7.49363C18.0751 7.60132 17.9428 7.68675 17.7972 7.74503C17.6516 7.80331 17.4956 7.83331 17.338 7.83331C17.1804 7.83331 17.0244 7.80331 16.8788 7.74503C16.7332 7.68675 16.6009 7.60132 16.4895 7.49363C16.378 7.38594 16.2897 7.25809 16.2293 7.11738C16.169 6.97667 16.138 6.82587 16.138 6.67357C16.138 6.36598 16.2644 6.071 16.4895 5.8535C16.7145 5.63601 17.0197 5.51382 17.338 5.51382C17.6563 5.51382 17.9615 5.63601 18.1865 5.8535C18.4116 6.071 18.538 6.36598 18.538 6.67357Z" fill="black"/>
</svg>
