<svg width="83" height="83" viewBox="0 0 83 83" fill="none" xmlns="http://www.w3.org/2000/svg">
<path d="M59.3034 1.84839C66.9191 3.94552 72.9029 10.1111 75.2462 18.206C75.6647 19.632 75.9994 22.2325 75.9994 24.2877C76.0413 30.7468 73.7817 36.1993 69.0114 40.9389C64.4503 45.5106 60.2658 47.3141 53.4451 47.6916C51.1018 47.8174 48.34 47.8174 47.2521 47.6497L45.3272 47.3561V41.1066H49.0096C51.0181 41.1066 53.7799 40.8969 55.1607 40.6872C60.6006 39.8064 65.5382 36.1155 67.8397 31.1243C68.844 29.0272 68.9695 28.2303 68.9695 24.5393C68.9277 21.1839 68.7603 19.8837 67.9652 17.9543C66.7517 14.8506 63.6134 11.4113 60.475 9.73359C56.6672 7.72035 53.9472 7.46869 36.6235 7.63646C22.1452 7.80423 21.1409 7.84617 18.8395 8.68502C10.4287 11.8307 6.07682 20.0934 8.29459 28.6916C10.4287 36.8704 16.9565 41.0647 27.4595 41.1066H31.5184V47.9013L25.3673 47.7335C20.1367 47.5658 18.7558 47.3561 16.4543 46.5172C9.17333 43.7909 3.48244 37.5834 1.59943 30.4113C0.800191 27.2656 0.800191 21.4356 1.59943 18.3318C3.02215 12.7954 6.70449 7.76229 11.5585 4.57465C16.8309 1.13537 19.1742 0.841767 40.0966 1.05148C53.9054 1.17731 57.253 1.30313 59.3034 1.84839ZM31.5184 14.2214V17.493L27.1666 17.7027C22.2707 17.9543 20.304 18.6674 18.8395 20.7225C17.5841 22.5261 17.5423 26.259 18.7976 27.9786C20.4296 30.2016 22.0197 30.7468 26.9992 30.9565L31.5184 31.1662V37.8351L26.2042 37.6673C20.1367 37.4996 18.2536 36.9124 15.199 34.1442C12.6883 31.8793 11.3493 28.9852 11.0982 25.3782C10.889 21.8969 11.3911 19.7579 13.1067 17.0735C15.7848 12.8373 20.0111 10.9919 27.041 10.9499L31.5184 10.908V14.2214ZM56.7508 11.7468C58.8012 12.376 60.0984 13.1309 61.7722 14.6828C64.8269 17.493 65.9985 20.1353 65.9985 24.3296C65.9985 29.6982 63.3205 33.9344 58.3409 36.4091C56.2487 37.4157 55.4537 37.5415 50.6833 37.7093L45.3272 37.8351V31.1662L49.8465 30.9565C53.4033 30.8307 54.7004 30.579 55.8303 29.9499C60.3913 27.2656 60.224 20.9742 55.5792 18.7093C54.2402 18.0382 52.7756 17.8285 47.9634 17.7027L41.9796 17.493V47.8174H35.2845V29.6563C35.2845 19.632 35.41 11.3274 35.5774 11.2016C35.7029 11.0338 39.9292 10.908 44.9506 10.908C52.8593 10.908 54.3657 11.0338 56.7508 11.7468Z" fill="#231F20" stroke="black" stroke-miterlimit="10"/>
<path d="M12.4432 56.6069H9.60227C9.56439 56.3152 9.48674 56.052 9.36932 55.8171C9.25189 55.5823 9.09659 55.3815 8.90341 55.2148C8.71023 55.0482 8.48106 54.9213 8.21591 54.8342C7.95455 54.7433 7.66477 54.6978 7.34659 54.6978C6.7822 54.6978 6.29545 54.8361 5.88636 55.1126C5.48106 55.3891 5.16856 55.7887 4.94886 56.3114C4.73295 56.8342 4.625 57.4667 4.625 58.2092C4.625 58.9819 4.73485 59.6296 4.95455 60.1523C5.17803 60.6713 5.49053 61.0633 5.89205 61.3285C6.29735 61.5898 6.77652 61.7205 7.32955 61.7205C7.64015 61.7205 7.92235 61.6808 8.17614 61.6012C8.43371 61.5217 8.65909 61.4061 8.85227 61.2546C9.04924 61.0993 9.21023 60.9118 9.33523 60.6921C9.46402 60.4686 9.55303 60.2167 9.60227 59.9364L12.4432 59.9535C12.3939 60.4686 12.2443 60.9762 11.9943 61.4762C11.7481 61.9762 11.4091 62.4326 10.9773 62.8455C10.5455 63.2546 10.0189 63.5804 9.39773 63.8228C8.7803 64.0652 8.07197 64.1864 7.27273 64.1864C6.2197 64.1864 5.27652 63.9554 4.44318 63.4933C3.61364 63.0273 2.95833 62.3493 2.47727 61.4592C1.99621 60.569 1.75568 59.4857 1.75568 58.2092C1.75568 56.9289 2 55.8436 2.48864 54.9535C2.97727 54.0633 3.63826 53.3872 4.47159 52.9251C5.30492 52.4629 6.23864 52.2319 7.27273 52.2319C7.97727 52.2319 8.62879 52.3304 9.22727 52.5273C9.82576 52.7205 10.3523 53.0046 10.8068 53.3796C11.2614 53.7508 11.6307 54.2073 11.9148 54.7489C12.1989 55.2906 12.375 55.9099 12.4432 56.6069ZM25.0355 58.2092C25.0355 59.4895 24.7893 60.5747 24.2969 61.4648C23.8045 62.355 23.1378 63.0311 22.2969 63.4933C21.4598 63.9554 20.5204 64.1864 19.4787 64.1864C18.4332 64.1864 17.492 63.9535 16.6548 63.4876C15.8177 63.0217 15.1529 62.3455 14.6605 61.4592C14.1719 60.569 13.9276 59.4857 13.9276 58.2092C13.9276 56.9289 14.1719 55.8436 14.6605 54.9535C15.1529 54.0633 15.8177 53.3872 16.6548 52.9251C17.492 52.4629 18.4332 52.2319 19.4787 52.2319C20.5204 52.2319 21.4598 52.4629 22.2969 52.9251C23.1378 53.3872 23.8045 54.0633 24.2969 54.9535C24.7893 55.8436 25.0355 56.9289 25.0355 58.2092ZM22.1605 58.2092C22.1605 57.4516 22.0526 56.8114 21.8366 56.2887C21.6245 55.766 21.3177 55.3701 20.9162 55.1012C20.5185 54.8323 20.0393 54.6978 19.4787 54.6978C18.9219 54.6978 18.4427 54.8323 18.0412 55.1012C17.6397 55.3701 17.331 55.766 17.1151 56.2887C16.9029 56.8114 16.7969 57.4516 16.7969 58.2092C16.7969 58.9667 16.9029 59.6069 17.1151 60.1296C17.331 60.6523 17.6397 61.0482 18.0412 61.3171C18.4427 61.5861 18.9219 61.7205 19.4787 61.7205C20.0393 61.7205 20.5185 61.5861 20.9162 61.3171C21.3177 61.0482 21.6245 60.6523 21.8366 60.1296C22.0526 59.6069 22.1605 58.9667 22.1605 58.2092ZM36.581 52.391V64.0273H34.1946L29.5639 57.3114H29.4901V64.0273H26.6776V52.391H29.098L33.6776 59.0955H33.7741V52.391H36.581ZM48.2528 52.391V64.0273H45.8665L41.2358 57.3114H41.1619V64.0273H38.3494V52.391H40.7699L45.3494 59.0955H45.446V52.391H48.2528ZM50.0213 64.0273V52.391H58.1349V54.6751H52.8338V57.0614H57.7202V59.3512H52.8338V61.7433H58.1349V64.0273H50.0213ZM70.4588 56.6069H67.6179C67.58 56.3152 67.5024 56.052 67.3849 55.8171C67.2675 55.5823 67.1122 55.3815 66.919 55.2148C66.7259 55.0482 66.4967 54.9213 66.2315 54.8342C65.9702 54.7433 65.6804 54.6978 65.3622 54.6978C64.7978 54.6978 64.3111 54.8361 63.902 55.1126C63.4967 55.3891 63.1842 55.7887 62.9645 56.3114C62.7486 56.8342 62.6406 57.4667 62.6406 58.2092C62.6406 58.9819 62.7505 59.6296 62.9702 60.1523C63.1937 60.6713 63.5062 61.0633 63.9077 61.3285C64.313 61.5898 64.7921 61.7205 65.3452 61.7205C65.6558 61.7205 65.938 61.6808 66.1918 61.6012C66.4493 61.5217 66.6747 61.4061 66.8679 61.2546C67.0649 61.0993 67.2259 60.9118 67.3509 60.6921C67.4796 60.4686 67.5687 60.2167 67.6179 59.9364L70.4588 59.9535C70.4096 60.4686 70.2599 60.9762 70.0099 61.4762C69.7637 61.9762 69.4247 62.4326 68.9929 62.8455C68.5611 63.2546 68.0346 63.5804 67.4134 63.8228C66.7959 64.0652 66.0876 64.1864 65.2884 64.1864C64.2353 64.1864 63.2921 63.9554 62.4588 63.4933C61.6293 63.0273 60.974 62.3493 60.4929 61.4592C60.0118 60.569 59.7713 59.4857 59.7713 58.2092C59.7713 56.9289 60.0156 55.8436 60.5043 54.9535C60.9929 54.0633 61.6539 53.3872 62.4872 52.9251C63.3205 52.4629 64.2543 52.2319 65.2884 52.2319C65.9929 52.2319 66.6444 52.3304 67.2429 52.5273C67.8414 52.7205 68.3679 53.0046 68.8224 53.3796C69.277 53.7508 69.6463 54.2073 69.9304 54.7489C70.2145 55.2906 70.3906 55.9099 70.4588 56.6069ZM71.6875 54.6751V52.391H81.5227V54.6751H77.9943V64.0273H75.2216V54.6751H71.6875Z" fill="black"/>
<path d="M26.8807 77.084V65.4476H31.6875C32.5587 65.4476 33.3106 65.6181 33.9432 65.959C34.5795 66.2961 35.0701 66.7677 35.4148 67.3738C35.7595 67.976 35.9318 68.6768 35.9318 69.476C35.9318 70.2791 35.7557 70.9817 35.4034 71.584C35.0549 72.1825 34.5568 72.6465 33.9091 72.976C33.2614 73.3056 32.4924 73.4703 31.6023 73.4703H28.6364V71.2544H31.0795C31.5038 71.2544 31.858 71.1806 32.142 71.0328C32.4299 70.8851 32.6477 70.6787 32.7955 70.4135C32.9432 70.1446 33.017 69.8321 33.017 69.476C33.017 69.1162 32.9432 68.8056 32.7955 68.5442C32.6477 68.2791 32.4299 68.0745 32.142 67.9306C31.8542 67.7866 31.5 67.7147 31.0795 67.7147H29.6932V77.084H26.8807ZM47.8807 69.6635H45.0398C45.0019 69.3719 44.9242 69.1086 44.8068 68.8738C44.6894 68.6389 44.5341 68.4382 44.3409 68.2715C44.1477 68.1048 43.9186 67.9779 43.6534 67.8908C43.392 67.7999 43.1023 67.7544 42.7841 67.7544C42.2197 67.7544 41.733 67.8927 41.3239 68.1692C40.9186 68.4457 40.6061 68.8453 40.3864 69.3681C40.1705 69.8908 40.0625 70.5234 40.0625 71.2658C40.0625 72.0385 40.1723 72.6863 40.392 73.209C40.6155 73.7279 40.928 74.12 41.3295 74.3851C41.7348 74.6465 42.214 74.7772 42.767 74.7772C43.0777 74.7772 43.3598 74.7374 43.6136 74.6578C43.8712 74.5783 44.0966 74.4628 44.2898 74.3113C44.4867 74.156 44.6477 73.9685 44.7727 73.7488C44.9015 73.5253 44.9905 73.2734 45.0398 72.9931L47.8807 73.0101C47.8314 73.5253 47.6818 74.0328 47.4318 74.5328C47.1856 75.0328 46.8466 75.4893 46.4148 75.9022C45.983 76.3113 45.4564 76.637 44.8352 76.8794C44.2178 77.1219 43.5095 77.2431 42.7102 77.2431C41.6572 77.2431 40.714 77.012 39.8807 76.5499C39.0511 76.084 38.3958 75.406 37.9148 74.5158C37.4337 73.6257 37.1932 72.5423 37.1932 71.2658C37.1932 69.9855 37.4375 68.9003 37.9261 68.0101C38.4148 67.12 39.0758 66.4438 39.9091 65.9817C40.7424 65.5196 41.6761 65.2885 42.7102 65.2885C43.4148 65.2885 44.0663 65.387 44.6648 65.584C45.2633 65.7772 45.7898 66.0613 46.2443 66.4363C46.6989 66.8075 47.0682 67.2639 47.3523 67.8056C47.6364 68.3472 47.8125 68.9666 47.8807 69.6635Z" fill="black"/>
</svg>
