<svg width="20" height="20" viewBox="0 0 20 20" fill="none" xmlns="http://www.w3.org/2000/svg">
<path d="M17 3.18865C16.0832 2.29574 14.9912 1.58778 13.7876 1.10606C12.5841 0.624335 11.2931 0.378493 9.99 0.38287C4.53 0.38287 0.0800002 4.67349 0.0800002 9.93793C0.0800002 11.6253 0.54 13.2644 1.4 14.7106L0 19.6666L5.25 18.336C6.7 19.0977 8.33 19.5026 9.99 19.5026C15.45 19.5026 19.9 15.212 19.9 9.94758C19.9 7.39249 18.87 4.99167 17 3.18865ZM9.99 17.8828C8.51 17.8828 7.06 17.4971 5.79 16.774L5.49 16.6004L2.37 17.3911L3.2 14.46L3 14.1611C2.17775 12.8951 1.74114 11.4317 1.74 9.93793C1.74 5.56054 5.44 1.99306 9.98 1.99306C12.18 1.99306 14.25 2.82226 15.8 4.32638C16.5675 5.06298 17.1757 5.93914 17.5894 6.90406C18.0031 7.86898 18.214 8.90347 18.21 9.94758C18.23 14.325 14.53 17.8828 9.99 17.8828ZM14.51 11.9434C14.26 11.8277 13.04 11.2492 12.82 11.1624C12.59 11.0853 12.43 11.0467 12.26 11.2782C12.09 11.5192 11.62 12.0591 11.48 12.2134C11.34 12.3773 11.19 12.3966 10.94 12.2713C10.69 12.1556 9.89 11.8952 8.95 11.0853C8.21 10.449 7.72 9.66796 7.57 9.42692C7.43 9.18587 7.55 9.06053 7.68 8.93518C7.79 8.82912 7.93 8.65557 8.05 8.52058C8.17 8.3856 8.22 8.27954 8.3 8.12527C8.38 7.96136 8.34 7.82637 8.28 7.71067C8.22 7.59497 7.72 6.41866 7.52 5.93657C7.32 5.47376 7.11 5.53161 6.96 5.52197H6.48C6.31 5.52197 6.05 5.57982 5.82 5.82087C5.6 6.06191 4.96 6.64043 4.96 7.81673C4.96 8.99304 5.85 10.1308 5.97 10.285C6.09 10.449 7.72 12.8594 10.2 13.8911C10.79 14.1418 11.25 14.2864 11.61 14.3925C12.2 14.5757 12.74 14.5467 13.17 14.4889C13.65 14.4214 14.64 13.9104 14.84 13.3511C15.05 12.7919 15.05 12.3195 14.98 12.2134C14.91 12.1074 14.76 12.0591 14.51 11.9434Z" fill="white"/>
</svg>
